<svg xmlns="http://www.w3.org/2000/svg" xmlns:xlink="http://www.w3.org/1999/xlink" viewBox="0 0 1734 1642"><g><defs><linearGradient id="idss1556665375_1g69349671" x1="0.26051110240114184" x2="0.7394888975988582" y1="0" y2="1"><stop offset="0" stop-color="rgb(255,156,85)" stop-opacity="1"></stop><stop offset="0.5210796734234234" stop-color="rgb(139,85,255)" stop-opacity="1"></stop><stop offset="1" stop-color="rgba(139, 85, 255, 0)" stop-opacity="0"></stop></linearGradient></defs><path d="M 1587.07 256.826 C 1685.21 462.955 1744.05 1491.41 1398 1120 C 1051.956 748.596 116.375 1207.612 61.5 986.5 C -354.287 -959.357 868.015 557.573 1248.83 461.427 C 1629.645 365.281 1488.94 50.696 1587.07 256.826 Z" fill="url(#idss1556665375_1g69349671)"></path></g><g opacity="0.3"><defs><linearGradient id="idss1556665375_2g-1325634744" x1="0.26051110240114167" x2="0.7394888975988582" y1="-2.795405157171585e-16" y2="1"><stop offset="0" stop-color="rgb(255,156,85)" stop-opacity="1"></stop><stop offset="1" stop-color="rgb(255, 84, 215)" stop-opacity="1"></stop></linearGradient></defs><path d="M 1610.704 268.149 C 1708.844 474.278 1767.684 1502.734 1421.634 1131.324 C 1075.59 759.92 140.009 1218.936 85.134 997.824 C -330.653 -948.033 891.649 568.896 1272.464 472.75 C 1653.279 376.604 1512.574 62.019 1610.704 268.149 Z" transform="translate(-23.268 -10.648) rotate(101 843.239 605.734)" fill="url(#idss1556665375_2g-1325634744)"></path></g></svg>